<svg width="109" height="32" viewBox="0 0 109 32" fill="none" xmlns="http://www.w3.org/2000/svg">
<path d="M1.99437 6.34239C1.99437 3.57696 3.79682 1.76269 6.15387 1.76269C8.21629 1.76269 9.51613 3.08376 9.88009 4.93325L11.6132 4.14061C11.0586 1.92122 9.23883 0.00126963 6.15387 0.00126963C2.70495 -0.0691874 -0.068053 2.80193 0.0012721 6.34239C-0.0333904 9.91808 2.49697 12.7364 6.15387 12.6835C9.48147 12.6835 11.6825 10.605 12.3065 7.75153L10.5733 7.04696C10.3827 8.15665 9.91475 9.07259 9.16951 9.81239C8.42426 10.5522 7.41905 10.9221 6.15387 10.9221C3.69283 10.9221 1.99437 9.21351 1.99437 6.34239Z" fill="black"/>
<path d="M14.9786 0.177412V12.5074H24.1642V10.6579H16.885V0.177412H14.9786Z" fill="black"/>
<path d="M26.9649 12.5074H28.8714V0.177412H26.9649V12.5074Z" fill="black"/>
<path d="M34.1384 7.57538H37.8647C40.3777 7.57538 41.7642 5.79635 41.7642 3.8764C41.7642 1.88599 40.395 0.177412 37.8647 0.177412H32.232V12.5074H34.1384V7.57538ZM34.1384 5.72589V2.02691H37.6913C38.9219 2.02691 39.7711 2.74909 39.7711 3.8764C39.7711 5.00371 38.9219 5.72589 37.6913 5.72589H34.1384Z" fill="black"/>
<path d="M44.6414 12.5074H50.7074C52.9431 12.5074 54.6936 11.0806 54.6936 9.16066C54.6936 7.61061 53.7924 6.51853 52.3539 6.16625C53.5844 5.62021 54.2603 4.65142 54.2603 3.43604C54.2603 1.60416 52.5965 0.177412 50.3608 0.177412H44.6414V12.5074ZM46.5479 5.28554V2.02691H50.2741C51.47 2.02691 52.3539 2.60817 52.3539 3.61219C52.3539 4.68665 51.6433 5.28554 50.2741 5.28554H46.5479ZM46.5479 10.6579V7.04696H50.6207C51.8686 7.04696 52.7005 7.89244 52.7005 8.89645C52.7005 9.9533 51.8513 10.6579 50.6207 10.6579H46.5479Z" fill="black"/>
<path d="M63.2631 0.00126963C59.7968 -0.0691874 56.8678 2.89 56.9372 6.34239C56.8678 9.81239 59.7968 12.754 63.2631 12.6835C66.7293 12.754 69.6583 9.81239 69.589 6.34239C69.6583 2.89 66.7293 -0.0691874 63.2631 0.00126963ZM63.2631 10.834C60.8714 10.834 58.9303 9.03736 58.9303 6.36C58.9303 3.71787 60.8194 1.85076 63.2631 1.85076C65.7068 1.85076 67.5959 3.68264 67.5959 6.34239C67.5959 9.00214 65.6548 10.834 63.2631 10.834Z" fill="black"/>
<path d="M70.7392 12.5074H72.8883L74.0495 9.51295H80.0461L81.2073 12.5074H83.3564L78.365 0.177412H75.7306L70.7392 12.5074ZM74.7254 7.75153L77.0478 1.78031L79.3702 7.75153H74.7254Z" fill="black"/>
<path d="M95.4701 12.5074V12.2255C95.2275 11.9613 95.0715 11.6443 95.0022 11.3096C94.9502 10.9573 94.8982 10.4289 94.8635 9.70671C94.7942 8.13904 94.1356 7.25833 92.9571 6.78274C94.4822 6.2367 95.3834 5.09178 95.3834 3.52411C95.3834 1.63939 93.9276 0.177412 91.4839 0.177412H85.6779V12.5074H87.5844V7.39924H90.5307C91.9345 7.39924 92.6971 7.98051 92.6971 9.68909C92.6971 10.4993 92.7318 11.0982 92.8011 11.4857C92.8704 11.8556 92.9744 12.2079 93.1304 12.5074H95.4701ZM87.5844 5.54975V2.02691H91.3106C92.6278 2.02691 93.3904 2.66102 93.3904 3.78833C93.3904 4.91564 92.6278 5.54975 91.3106 5.54975H87.5844Z" fill="black"/>
<path d="M98.3413 12.5074H102.934C106.782 12.5074 109 9.91808 109 6.43046C109 2.78432 106.851 0.177412 102.934 0.177412H98.3413V12.5074ZM100.248 1.93883H102.934C105.655 1.93883 107.094 3.84117 107.094 6.43046C107.094 8.77315 105.62 10.7459 102.934 10.7459H100.248V1.93883Z" fill="black"/>
<path d="M9.01353 26.8038V32H10.92V19.67H9.01353V25.0424H2.42765V19.67H0.52121V32H2.42765V26.8038H9.01353Z" fill="black"/>
<path d="M14.2847 19.67V32H23.2969V30.1505H16.1911V26.5396H22.6037V24.6901H16.1911V21.5195H23.1236V19.67H14.2847Z" fill="black"/>
<path d="M25.2311 32H27.3802L28.5414 29.0056H34.538L35.6992 32H37.8483L32.8569 19.67H30.2225L25.2311 32ZM29.2173 27.2442L31.5397 21.2729L33.8621 27.2442H29.2173Z" fill="black"/>
<path d="M40.1698 19.67V32H49.3554V30.1505H42.0763V19.67H40.1698Z" fill="black"/>
<path d="M59.888 19.67H49.1426V21.5195H53.562V32H55.4685V21.5195H59.888V19.67Z" fill="black"/>
<path d="M70.9762 26.8038V32H72.8826V19.67H70.9762V25.0424H64.3903V19.67H62.4838V32H64.3903V26.8038H70.9762Z" fill="black"/>
</svg>
