<svg width="24" height="24" viewBox="0 0 24 24" fill="none" xmlns="http://www.w3.org/2000/svg">
<g clip-path="url(#clip0_1_2426)">
<path d="M23.507 9.818H12.052V14.727H18.544C17.507 18 14.944 19.091 12 19.091C10.8594 19.0924 9.73542 18.8186 8.72326 18.293C7.71109 17.7674 6.84065 17.0053 6.18578 16.0716C5.53091 15.1378 5.11094 14.0598 4.9615 12.9291C4.81205 11.7985 4.93755 10.6484 5.32733 9.57658C5.71712 8.50473 6.35969 7.54272 7.20053 6.77217C8.04138 6.00161 9.05568 5.44524 10.1574 5.15027C11.2591 4.85529 12.4157 4.83042 13.5291 5.07774C14.6425 5.32507 15.6798 5.83731 16.553 6.571L20.12 3.171C18.6833 1.84852 16.9455 0.896627 15.0576 0.397932C13.1696 -0.100764 11.1885 -0.131197 9.28609 0.309276C7.3837 0.749748 5.61755 1.64782 4.1409 2.92554C2.66425 4.20327 1.52172 5.82205 0.812467 7.6414C0.10321 9.46075 -0.151346 11.4257 0.0708922 13.3657C0.29313 15.3057 0.985446 17.1622 2.08776 18.774C3.19007 20.3859 4.66908 21.7043 6.39642 22.615C8.12376 23.5257 10.0472 24.0011 12 24C18.617 24 24.6 19.636 23.507 9.818Z" fill="#4B4C56"/>
</g>
<defs>
<clipPath id="clip0_1_2426">
<rect width="24" height="24" fill="white"/>
</clipPath>
</defs>
</svg>
