<svg width="24" height="24" viewBox="0 0 24 24" fill="none" xmlns="http://www.w3.org/2000/svg">
<path d="M1 12H14" stroke="#F6D456" stroke-width="2" stroke-linecap="round" stroke-linejoin="round"/>
<path d="M10 16L14 12L10 8" stroke="#F6D456" stroke-width="2" stroke-linecap="round" stroke-linejoin="round"/>
<path d="M2 17V20C2 20.5304 2.21071 21.0391 2.58579 21.4142C2.96086 21.7893 3.46957 22 4 22H20C20.5304 22 21.0391 21.7893 21.4142 21.4142C21.7893 21.0391 22 20.5304 22 20V4C22 3.46957 21.7893 2.96086 21.4142 2.58579C21.0391 2.21071 20.5304 2 20 2H4C3.46957 2 2.96086 2.21071 2.58579 2.58579C2.21071 2.96086 2 3.46957 2 4V7" stroke="#F6D456" stroke-width="2" stroke-linecap="round" stroke-linejoin="round"/>
</svg>
